# xmcd
#
# Track frame offsets:
#	150
#	16383
#	39089
#	54300
#	76252
#	96948
#	113857
#	129912
#	151496
#	178289
#	196699
#
# Disc length: 2851 seconds
#
# Revision: 1
# Processed by: cddbd v1.5.2PL0 Copyright (c) Steve Scherf et al.
# Submitted via: audiograbber 1.83.01
#
DISCID=7f0b210b
DTITLE=Robin Rogers - Back In The Fire
DYEAR=2010
DGENRE=Blues Rock
TTITLE0=Baby Bye-Bye
TTITLE1=Second Time Around
TTITLE2=You Don't Know
TTITLE3=Need Your Love So Bad
TTITLE4=The Plan
TTITLE5=I Know I Done Wrong
TTITLE6=Ocean of Tears
TTITLE7=Don't Walk Away....Run
TTITLE8=Hittin' On Nothin'
TTITLE9=Yesterday's Blues
TTITLE10=What We Are Worth
EXTD=
EXTT0=
EXTT1=
EXTT2=
EXTT3=
EXTT4=
EXTT5=
EXTT6=
EXTT7=
EXTT8=
EXTT9=
EXTT10=
PLAYORDER=
